<?xml version="1.0" encoding="UTF-8" standalone="no"?>
<!-- Generator: Adobe Illustrator 16.0.0, SVG Export Plug-In . SVG Version: 6.00 Build 0)  -->

<svg
   xmlns:dc="http://purl.org/dc/elements/1.1/"
   xmlns:cc="http://creativecommons.org/ns#"
   xmlns:rdf="http://www.w3.org/1999/02/22-rdf-syntax-ns#"
   xmlns:svg="http://www.w3.org/2000/svg"
   xmlns="http://www.w3.org/2000/svg"
   xmlns:xlink="http://www.w3.org/1999/xlink"
   xmlns:sodipodi="http://sodipodi.sourceforge.net/DTD/sodipodi-0.dtd"
   xmlns:inkscape="http://www.inkscape.org/namespaces/inkscape"
   version="1.1"
   id="Layer_1"
   x="0px"
   y="0px"
   width="552.666px"
   height="268px"
   viewBox="0 0 552.666 268"
   enable-background="new 0 0 552.666 268"
   xml:space="preserve"
   inkscape:version="0.91 r13725"
   sodipodi:docname="best-logo-white.svg"><metadata
     id="metadata35"><rdf:RDF><cc:Work
         rdf:about=""><dc:format>image/svg+xml</dc:format><dc:type
           rdf:resource="http://purl.org/dc/dcmitype/StillImage" /><dc:title></dc:title></cc:Work></rdf:RDF></metadata><defs
     id="defs33" /><sodipodi:namedview
     pagecolor="#ffffff"
     bordercolor="#666666"
     borderopacity="1"
     objecttolerance="10"
     gridtolerance="10"
     guidetolerance="10"
     inkscape:pageopacity="0"
     inkscape:pageshadow="2"
     inkscape:window-width="1920"
     inkscape:window-height="1018"
     id="namedview31"
     showgrid="false"
     inkscape:zoom="0.62786564"
     inkscape:cx="41.410134"
     inkscape:cy="134"
     inkscape:window-x="-8"
     inkscape:window-y="-8"
     inkscape:window-maximized="1"
     inkscape:current-layer="Layer_1"><inkscape:grid
       type="xygrid"
       id="grid4163" /></sodipodi:namedview><g
     id="g3"><defs
       id="defs5"><rect
         id="SVGID_1_"
         x="-26.667"
         y="-287.67"
         width="595.277"
         height="841.89" /></defs><clipPath
       id="SVGID_2_"><use
         xlink:href="#SVGID_1_"
         overflow="visible"
         id="use9" /></clipPath><path
       clip-path="url(#SVGID_2_)"
       fill="#0071B9"
       d="M317.679,147.215c0,4.238-0.854,7.977-2.557,11.221   c-1.705,3.245-3.998,5.919-6.881,8.018c-3.41,2.52-7.063,4.305-10.959,5.354c-3.896,1.05-8.928,1.575-15.096,1.575H256.19V88.183   h24.041c6.449,0,11.289,0.199,14.516,0.601c3.225,0.4,6.318,1.343,9.281,2.83c3.246,1.637,5.619,3.781,7.119,6.43   c1.502,2.649,2.254,5.765,2.254,9.347c0,4.004-1.127,7.584-3.379,10.748c-2.254,3.163-5.369,5.642-9.346,7.432v0.458   c5.402,1.373,9.586,3.884,12.553,7.529C316.196,137.204,317.679,141.754,317.679,147.215 M300.856,108.983   c0-2.061-0.365-3.843-1.096-5.349c-0.73-1.508-1.908-2.699-3.531-3.578c-1.949-1.029-4.119-1.66-6.514-1.886   c-2.395-0.231-5.703-0.344-9.924-0.344h-11.564v24.943h13.697c3.773,0,6.555-0.181,8.34-0.543c1.785-0.363,3.631-1.115,5.539-2.259   c1.826-1.106,3.125-2.557,3.896-4.349C300.47,113.827,300.856,111.615,300.856,108.983 M305.136,147.682   c0-3.213-0.488-5.859-1.463-7.944c-0.975-2.082-2.943-3.853-5.906-5.305c-1.91-0.954-3.992-1.565-6.244-1.833   c-2.254-0.268-5.449-0.403-9.592-0.403h-13.703v31.542h9.805c5.277,0,9.439-0.229,12.484-0.688   c3.045-0.458,5.725-1.433,8.039-2.923c2.275-1.492,3.939-3.185,4.996-5.076C304.606,153.158,305.136,150.7,305.136,147.682"
       id="path11"
       style="fill:#ffffff" /><polygon
       clip-path="url(#SVGID_2_)"
       fill="#0071B9"
       points="329.675,173.382 329.675,88.183 386.452,88.183 386.452,98.262    341.712,98.262 341.712,121.61 383.407,121.61 383.407,131.689 341.712,131.689 341.712,163.303 386.452,163.303 386.452,173.382     "
       id="polygon13"
       style="fill:#ffffff" /><path
       clip-path="url(#SVGID_2_)"
       fill="#0071B9"
       d="M424.888,174.904c-6.57,0-12.158-0.639-16.762-1.914   c-4.605-1.275-8.934-2.849-12.99-4.717v-14.18h0.852c3.973,3.504,8.475,6.216,13.504,8.141c5.027,1.921,9.875,2.882,14.539,2.882   c6.648,0,11.68-1.305,15.084-3.916c3.406-2.61,5.111-6.05,5.111-10.317c0-3.396-0.893-6.158-2.676-8.291   c-1.783-2.136-4.623-3.718-8.514-4.747c-2.801-0.761-5.357-1.389-7.67-1.887c-2.313-0.494-5.213-1.162-8.703-2.001   c-3.123-0.764-5.924-1.734-8.398-2.916c-2.477-1.183-4.666-2.726-6.572-4.632c-1.867-1.87-3.318-4.07-4.352-6.608   c-1.035-2.533-1.553-5.46-1.553-8.778c0-6.902,2.859-12.687,8.578-17.357c5.717-4.67,13.018-7.006,21.898-7.006   c5.072,0,9.867,0.477,14.389,1.431c4.523,0.955,8.711,2.31,12.564,4.065v13.574h-0.912c-2.881-2.484-6.572-4.65-11.072-6.503   c-4.498-1.852-9.221-2.779-14.168-2.779c-5.596,0-10.117,1.228-13.563,3.689c-3.447,2.457-5.17,5.688-5.17,9.69   c0,3.62,1.012,6.498,3.041,8.633c2.025,2.134,4.967,3.698,8.818,4.686c2.557,0.648,5.68,1.382,9.371,2.202   c3.695,0.821,6.758,1.573,9.191,2.259c6.248,1.793,10.813,4.501,13.693,8.121c2.879,3.624,4.32,8.083,4.32,13.383   c0,3.317-0.719,6.597-2.16,9.837c-1.439,3.239-3.459,5.986-6.053,8.234c-2.922,2.479-6.215,4.387-9.887,5.719   C434.999,174.239,430.403,174.904,424.888,174.904"
       id="path15"
       style="fill:#ffffff" /><polygon
       clip-path="url(#SVGID_2_)"
       fill="#0071B9"
       points="490.274,173.382 490.274,98.262 459.819,98.262 459.819,88.183    532.763,88.183 532.763,98.262 502.31,98.262 502.31,173.382  "
       id="polygon17"
       style="fill:#ffffff" /><g
       clip-path="url(#SVGID_2_)"
       id="g19"><text
         transform="matrix(1 0 0 1 334.3809 206.7275)"
         fill="#0071B9"
         font-family="'Tahoma'"
         font-size="31.5129"
         id="text21"
         style="fill:#ffffff;">AGH KRAKOW</text>
</g><path
       clip-path="url(#SVGID_2_)"
       fill="#0071B9"
       d="M210.959,173.494l-19.968-11.507h-52.139l-19.963,11.507   c19.102,33.189,76.217,87.536,138.1,92.24C235.426,253.657,201.107,210.255,210.959,173.494"
       id="path23"
       style="fill:#ffffff" /><path
       clip-path="url(#SVGID_2_)"
       fill="#FFA615"
       d="M168.21,111.137L168.21,111.137l-0.39-0.677L168.21,111.137z M225.053,2.109   c0.322,24.722-20.094,76.127-56.856,85.983l0.013,23.045l26.068,45.157l19.949,11.538C233.42,134.69,251.931,58.057,225.053,2.109"
       id="path25"
       style="fill:#ffffff" /><path
       clip-path="url(#SVGID_2_)"
       fill="#75BF1E"
       d="M135.567,156.294L135.567,156.294l-0.39,0.68L135.567,156.294z M161.652,88.093   c-38.29-0.054-113.92,22.238-148.925,73.489c21.246-12.639,75.982-20.67,102.895,6.254l19.945-11.542l26.071-45.151L161.652,88.093   z"
       id="path27"
       style="fill:#ffffff" /><path
       clip-path="url(#SVGID_2_)"
       fill="#0071B9"
       d="M152.702,143.135c0-6.745,5.47-12.215,12.222-12.215   c6.748,0,12.218,5.47,12.218,12.215c0,6.767-5.47,12.221-12.218,12.221C158.172,155.355,152.702,149.901,152.702,143.135"
       id="path29"
       style="fill:#ffffff" /></g></svg>